#!OML:ASF E:\emotionWalksFemale\Project 1\Capture day 1\Session 1\Female1.ASF
:FULLY-SPECIFIED
:DEGREES
137
root 8.27016 15.1807 42.3576 178.969 -6.00062 -179.686
lowerback 7.33398 2.22181 2.01623
upperback -3.81017 3.1394 -0.156073
thorax -8.01469 1.4017 -1.73405
lowerneck -3.41529 16.6033 10.5766
upperneck 15.4505 22.3228 -6.46622
head 7.2127 10.7961 -1.73193
rclavicle 1.17407e-015 3.47873e-016
rhumerus -47.2888 17.1039 -100.376
rradius 35.8901
rwrist 7.5272
rhand -2.1234 -57.4692
rfingers 7.12502
rthumb 23.555 -86.0468
lclavicle 1.17407e-015 3.47873e-016
lhumerus -42.5933 -10.1499 93.3094
lradius 36.3471
lwrist -14.7065
lhand -3.46804 -34.3014
lfingers 7.12502
lthumb 22.2647 -5.56391
rfemur -5.04909 15.6482 24.1002
rtibia 26.7366
rfoot -25.9417 -32.5001
rtoes 16.2201
lfemur -8.615 -24.1062 -23.903
ltibia 27.9017
lfoot -22.9846 15.5845
ltoes -31.592
138
root 8.27188 15.1798 42.359 178.912 -5.85736 -179.618
lowerback 7.43201 2.28233 2.06392
upperback -3.82217 3.22929 -0.146201
thorax -8.07921 1.442 -1.76781
lowerneck -3.36279 16.579 10.6052
upperneck 15.4258 22.2873 -6.45645
head 7.19496 10.7838 -1.74257
rclavicle -8.87698e-015 -2.93207e-015
rhumerus -47.326 17.0058 -100.362
rradius 35.923
rwrist 7.51262
rhand -2.16282 -57.4329
rfingers 7.12502
rthumb 23.5172 -86.0153
lclavicle -8.87698e-015 -2.93207e-015
lhumerus -42.5833 -10.192 93.3324
lradius 36.2154
lwrist -14.9462
lhand -3.92239 -34.2398
lfingers 7.12502
lthumb 21.8285 -5.45096
rfemur -5.0351 15.7005 24.1859
rtibia 26.7575
rfoot -25.7345 -32.5109
rtoes 15.8881
lfemur -8.59592 -24.0804 -23.8383
ltibia 27.9203
lfoot -23.0487 15.6205
ltoes -30.838
139
root 8.26943 15.1834 42.3581 179.127 -5.97089 -179.583
lowerback 7.22097 2.24631 2.10078
upperback -3.90263 3.17816 -0.11531
thorax -8.04484 1.41405 -1.74063
lowerneck -3.30912 16.5915 10.5188
upperneck 15.427 22.3067 -6.41371
head 7.17294 10.7923 -1.72302
rclavicle 3.98035e-014 8.54774e-015
rhumerus -47.4189 17.1138 -100.384
rradius 35.9585
rwrist 7.42828
rhand -2.25909 -57.4929
rfingers 7.12502
rthumb 23.4249 -86.0871
lclavicle 3.98035e-014 8.54774e-015
lhumerus -42.5979 -10.09 93.3705
lradius 36.1811
lwrist -14.9788
lhand -3.57652 -33.9704
lfingers 7.12502
lthumb 22.1606 -5.22051
rfemur -5.28691 15.6452 24.1492
rtibia 26.7525
rfoot -25.6049 -32.6146
rtoes 15.268
lfemur -8.90493 -24.1691 -23.687
ltibia 27.9163
lfoot -23.0025 15.5591
ltoes -30.6453
140
root 8.26677 15.1757 42.3635 178.858 -5.41407 -179.644
lowerback 7.61597 2.41059 2.06335
upperback -3.83788 3.4095 -0.107103
thorax -8.19848 1.52871 -1.76129
lowerneck -3.34294 16.6128 10.4502
upperneck 15.4463 22.3326 -6.36404
head 7.17322 10.8033 -1.69396
rclavicle -4.11329e-014 -5.81445e-015
rhumerus -47.4432 17.2898 -100.431
rradius 35.9558
rwrist 7.3102
rhand -2.21489 -57.5189
rfingers 7.12502
rthumb 23.4673 -86.1077
lclavicle -4.11329e-014 -5.81445e-015
lhumerus -42.6119 -10.1132 93.3914
lradius 36.2187
lwrist -14.9206
lhand -3.33064 -33.8861
lfingers 7.12502
lthumb 22.3966 -5.16451
rfemur -5.12412 15.6351 24.0594
rtibia 26.7507
rfoot -25.2178 -32.2771
rtoes 14.3331
lfemur -8.52771 -24.0752 -23.9465
ltibia 27.9414
lfoot -23.1082 16.0021
ltoes -30.6479
141
root 8.26674 15.1786 42.3583 178.987 -5.62593 -179.682
lowerback 7.38021 2.34149 2.04423
upperback -3.82899 3.3049 -0.140913
thorax -8.05459 1.48031 -1.75924
lowerneck -3.36973 16.6118 10.4671
upperneck 15.3936 22.3293 -6.37332
head 7.16322 10.804 -1.69844
rclavicle 2.4466e-014 5.34234e-015
rhumerus -47.3721 17.2771 -100.414
rradius 35.9433
rwrist 7.30171
rhand -2.10955 -57.4805
rfingers 7.12502
rthumb 23.5683 -86.0564
lclavicle 2.4466e-014 5.34234e-015
lhumerus -42.5992 -10.1984 93.3615
lradius 36.2885
lwrist -14.8287
lhand -3.1909 -33.8121
lfingers 7.12502
lthumb 22.5307 -5.10671
rfemur -5.19002 15.6615 24.0205
rtibia 26.7283
rfoot -25.3854 -32.2667
rtoes 15.0618
lfemur -8.66322 -24.1485 -23.9222
ltibia 27.9637
lfoot -23.21 15.7123
ltoes -30.3907
142
root 8.26965 15.1775 42.3549 178.92 -5.79269 -179.648
lowerback 7.39233 2.28104 2.07126
upperback -3.7912 3.22752 -0.148461
thorax -8.02222 1.4424 -1.77119
lowerneck -3.35755 16.6121 10.4812
upperneck 15.324 22.328 -6.37324
head 7.13993 10.8076 -1.70386
rclavicle -1.63687e-014 -4.39811e-015
rhumerus -47.3001 17.1355 -100.373
rradius 35.935
rwrist 7.35482
rhand -2.21167 -57.3943
rfingers 7.12502
rthumb 23.4704 -85.9827
lclavicle -1.63687e-014 -4.39811e-015
lhumerus -42.5657 -9.97398 93.2284
lradius 36.2985
lwrist -15.049
lhand -3.15624 -33.7602
lfingers 7.12502
lthumb 22.564 -5.05877
rfemur -5.04986 15.7346 24.1329
rtibia 26.7328
rfoot -25.6614 -32.21
rtoes 15.8676
lfemur -8.58121 -24.1794 -23.9021
ltibia 27.989
lfoot -23.3594 15.4683
ltoes -30.1036
143
root 8.26758 15.1813 42.3586 179.038 -5.6998 -179.579
lowerback 7.3704 2.32737 2.20535
upperback -3.86065 3.30021 -0.171319
thorax -8.07268 1.46727 -1.88093
lowerneck -3.39088 16.6155 10.4243
upperneck 15.3554 22.309 -6.20211
head 7.12721 10.8075 -1.64634
rclavicle 6.97299e-015 -5.11871e-015
rhumerus -47.29 16.9761 -100.358
rradius 35.9313
rwrist 7.36612
rhand -2.2494 -57.468
rfingers 7.12502
rthumb 23.4342 -86.061
lclavicle 6.97299e-015 -5.11871e-015
lhumerus -42.6082 -10.1799 93.3014
lradius 36.417
lwrist -14.6419
lhand -2.60177 -33.6478
lfingers 7.12502
lthumb 23.0961 -5.012
rfemur -5.21479 15.663 24.124
rtibia 26.6914
rfoot -25.6433 -32.011
rtoes 15.9667
lfemur -8.75101 -24.1728 -23.7727
ltibia 27.9951
lfoot -23.3086 15.6393
ltoes -30.3442
